<svg xmlns="http://www.w3.org/2000/svg" xmlns:xlink="http://www.w3.org/1999/xlink" width="200" zoomAndPan="magnify" viewBox="0 0 375 374.999991" height="200" preserveAspectRatio="xMidYMid meet" version="1.0"><defs><g/><clipPath id="3f3aceb1dd"><path d="M 22 176 L 43 176 L 43 200 L 22 200 Z M 22 176 " clip-rule="nonzero"/></clipPath><clipPath id="99caa4d66b"><path d="M 20.570312 196.546875 L 28.734375 173.953125 L 45.265625 179.925781 L 37.101562 202.519531 Z M 20.570312 196.546875 " clip-rule="nonzero"/></clipPath><clipPath id="38e5a00a18"><path d="M 23.5 188.4375 L 25.792969 182.085938 C 27.414062 177.605469 32.355469 175.289062 36.835938 176.90625 C 41.316406 178.523438 43.636719 183.46875 42.015625 187.949219 L 39.722656 194.296875 C 38.105469 198.777344 33.160156 201.097656 28.679688 199.476562 C 24.199219 197.859375 21.882812 192.914062 23.5 188.4375 " clip-rule="nonzero"/></clipPath><clipPath id="27eabbac1d"><path d="M 25 173 L 45 173 L 45 188 L 25 188 Z M 25 173 " clip-rule="nonzero"/></clipPath><clipPath id="00ee2ca063"><path d="M 28.6875 173.976562 L 45.257812 179.84375 L 42.324219 188.128906 L 25.753906 182.261719 Z M 28.6875 173.976562 " clip-rule="nonzero"/></clipPath><clipPath id="34886f716a"><path d="M 28.6875 173.976562 L 44.949219 179.734375 L 42.160156 187.601562 L 25.902344 181.84375 Z M 28.6875 173.976562 " clip-rule="nonzero"/></clipPath><clipPath id="0100e725d7"><path d="M 255 151 L 275 151 L 275 171 L 255 171 Z M 255 151 " clip-rule="nonzero"/></clipPath><clipPath id="e6c61d11af"><path d="M 260.992188 151.882812 L 274.457031 157.652344 L 268.691406 171.117188 L 255.226562 165.347656 Z M 260.992188 151.882812 " clip-rule="nonzero"/></clipPath><clipPath id="7f5b2116e8"><path d="M 260.992188 151.882812 L 274.351562 157.605469 L 268.753906 170.675781 L 255.394531 164.953125 Z M 260.992188 151.882812 " clip-rule="nonzero"/></clipPath><clipPath id="8b3434136b"><path d="M 261 139 L 275 139 L 275 158 L 261 158 Z M 261 139 " clip-rule="nonzero"/></clipPath><clipPath id="d7942286a3"><path d="M 267.691406 136.449219 L 281.285156 142.273438 L 274.601562 157.871094 L 261.007812 152.046875 Z M 267.691406 136.449219 " clip-rule="nonzero"/></clipPath><clipPath id="5e1ec8c96c"><path d="M 274.378906 139.316406 L 274.417969 157.691406 L 261.046875 151.960938 L 274.378906 139.316406 " clip-rule="nonzero"/></clipPath><clipPath id="616d0fd29f"><path d="M 270 138 L 276 138 L 276 145 L 270 145 Z M 270 138 " clip-rule="nonzero"/></clipPath><clipPath id="1129dbc624"><path d="M 272.082031 137.355469 L 277.179688 139.542969 L 275.039062 144.535156 L 269.941406 142.351562 Z M 272.082031 137.355469 " clip-rule="nonzero"/></clipPath><clipPath id="9ab47f19d6"><path d="M 275.132812 139.128906 L 275.429688 143.25 C 275.453125 143.570312 275.308594 143.875 275.046875 144.0625 C 274.789062 144.246094 274.449219 144.28125 274.15625 144.15625 L 270.90625 142.761719 C 270.613281 142.636719 270.40625 142.367188 270.359375 142.050781 C 270.316406 141.734375 270.4375 141.421875 270.683594 141.21875 L 273.871094 138.589844 C 274.09375 138.402344 274.402344 138.359375 274.667969 138.472656 C 274.933594 138.589844 275.113281 138.839844 275.132812 139.128906 " clip-rule="nonzero"/></clipPath></defs><g fill="#ffd700" fill-opacity="1"><g transform="translate(31.086982, 195.096981)"><g><path d="M 66.960938 -34.558594 C 61.679688 -20.160156 55.078125 -14.28125 49.441406 -14.28125 C 47.28125 -14.28125 46.078125 -15.359375 46.078125 -17.398438 C 46.078125 -18.238281 46.320312 -19.199219 46.679688 -20.398438 L 56.039062 -47.039062 C 56.878906 -49.441406 57.359375 -51.601562 57.359375 -53.640625 C 57.359375 -63.238281 49.199219 -70.441406 39.601562 -70.441406 C 34.921875 -70.441406 31.199219 -69.359375 28.078125 -67.078125 C 27.359375 -69.238281 24.359375 -70.441406 21.121094 -70.441406 C 17.761719 -70.441406 14.519531 -68.878906 13.320312 -65.519531 L -6.71875 -9.480469 C -7.078125 -8.398438 -7.199219 -7.441406 -7.199219 -6.480469 C -7.199219 -2.039062 -3.71875 0.238281 0.121094 0.238281 C 4.320312 0.238281 9.121094 -2.398438 10.921875 -7.800781 C 15.121094 -19.441406 20.878906 -35.878906 24.960938 -47.398438 C 28.199219 -53.398438 32.398438 -56.28125 35.761719 -56.28125 C 37.921875 -56.28125 39.480469 -54.839844 39.480469 -52.558594 C 39.480469 -51.71875 39.238281 -50.640625 38.878906 -49.558594 L 30.121094 -24.839844 C 29.160156 -22.078125 28.558594 -19.441406 28.558594 -16.921875 C 28.558594 -5.878906 37.679688 0 47.878906 0 C 60.121094 0 73.199219 -8.28125 81.480469 -31.679688 C 81.839844 -32.640625 82.078125 -33.601562 82.078125 -34.441406 C 82.078125 -38.28125 78.601562 -40.320312 75 -40.320312 C 71.761719 -40.320312 68.160156 -38.519531 66.960938 -34.558594 Z M 66.960938 -34.558594 "/></g></g></g><g fill="#ffd700" fill-opacity="1"><g transform="translate(94.087013, 195.096981)"><g><path d="M 50.761719 -25.078125 C 50.761719 -24.960938 50.761719 -26.878906 50.28125 -29.160156 C 51.121094 -29.761719 51.960938 -30.71875 52.679688 -31.800781 C 54.71875 -34.800781 58.320312 -45.238281 58.320312 -50.039062 C 58.320312 -62.28125 48.238281 -70.441406 35.28125 -70.441406 C 24 -70.441406 13.320312 -64.199219 9.480469 -53.519531 L 0.71875 -28.800781 C -0.359375 -25.800781 -0.839844 -22.800781 -0.839844 -20.160156 C -0.839844 -7.558594 9.960938 0 22.199219 0 C 31.558594 0 40.078125 -3 45.121094 -11.640625 C 47.28125 -11.039062 49.800781 -10.679688 52.320312 -10.679688 C 66.480469 -10.679688 77.640625 -20.761719 81.71875 -33.359375 C 82.078125 -34.679688 82.320312 -35.878906 82.320312 -36.960938 C 82.320312 -41.398438 79.078125 -43.921875 75.601562 -43.921875 C 72.359375 -43.921875 69 -42 67.679688 -37.558594 C 65.039062 -30.121094 59.519531 -24.960938 52.441406 -24.960938 C 51.960938 -24.960938 51.238281 -24.960938 50.761719 -25.078125 Z M 39.601562 -43.558594 C 39.238281 -42.480469 38.878906 -41.519531 38.761719 -40.558594 C 32.160156 -41.28125 26.28125 -35.878906 26.28125 -28.679688 C 26.398438 -24.601562 28.441406 -22.441406 30.71875 -20.519531 C 29.160156 -16.320312 25.679688 -14.28125 21.960938 -14.28125 C 17.28125 -14.28125 16.078125 -17.160156 16.078125 -20.039062 C 16.078125 -22.320312 16.679688 -24.480469 17.160156 -25.679688 L 25.679688 -50.039062 C 27.121094 -54 31.320312 -56.28125 35.039062 -56.28125 C 38.761719 -56.28125 41.160156 -53.761719 41.160156 -51 C 41.160156 -48.839844 40.441406 -46.078125 39.601562 -43.558594 Z M 39.601562 -43.558594 "/></g></g></g><g fill="#ffd700" fill-opacity="1"><g transform="translate(156.727046, 195.096981)"><g><path d="M 42.839844 -33.839844 C 38.039062 -20.640625 30.480469 -14.28125 23.519531 -14.28125 C 19.199219 -14.28125 16.558594 -16.921875 16.558594 -20.160156 C 16.558594 -21 16.800781 -21.960938 17.039062 -22.800781 L 28.800781 -56.28125 L 36.601562 -56.28125 C 42.71875 -56.28125 45.960938 -60.601562 45.960938 -64.558594 C 45.960938 -67.679688 43.921875 -70.441406 39.359375 -70.441406 L 33.960938 -70.441406 L 42 -93.839844 C 42.238281 -94.679688 42.359375 -95.398438 42.359375 -96.121094 C 42.359375 -100.558594 39.238281 -104.160156 33.960938 -104.160156 C 30 -104.160156 26.640625 -101.398438 25.199219 -97.199219 L 15.601562 -70.441406 L 10.558594 -70.441406 C 4.078125 -70.441406 1.320312 -66.359375 1.320312 -62.519531 C 1.320312 -59.160156 3.359375 -56.28125 6.601562 -56.28125 L 10.558594 -56.28125 L 0.480469 -27.359375 L 0.480469 -27.480469 C -0.480469 -24.601562 -0.960938 -21.960938 -0.960938 -19.441406 C -0.960938 -7.199219 9.960938 0 22.320312 0 C 37.679688 0 50.519531 -11.398438 57.359375 -31.078125 C 57.601562 -31.921875 57.839844 -32.761719 57.839844 -33.480469 C 57.839844 -37.078125 54.359375 -39.359375 50.640625 -39.359375 C 47.640625 -39.359375 44.28125 -37.679688 42.839844 -33.839844 Z M 42.839844 -33.839844 "/></g></g></g><g fill="#ffd700" fill-opacity="1"><g transform="translate(195.967061, 195.096981)"><g><path d="M 60.71875 -33.839844 C 55.441406 -19.921875 42.839844 -14.28125 32.640625 -14.28125 C 23.878906 -14.28125 18.359375 -18.480469 18.359375 -24 C 18.359375 -25.078125 18.480469 -26.160156 18.960938 -27.359375 L 19.921875 -29.640625 C 23.398438 -27.480469 27.71875 -26.039062 32.519531 -26.039062 C 43.441406 -26.039062 53.039062 -32.878906 56.28125 -43.679688 C 56.878906 -45.960938 57.238281 -48.238281 57.238281 -50.28125 C 57.238281 -61.679688 48.238281 -70.441406 34.679688 -70.441406 C 24 -70.441406 13.558594 -64.199219 9.359375 -52.199219 L 2.28125 -31.679688 C 1.320312 -28.800781 0.71875 -25.921875 0.71875 -23.160156 C 0.71875 -8.878906 14.160156 0 31.679688 0 C 48.359375 0 67.320312 -8.160156 75.238281 -31.078125 C 75.601562 -32.039062 75.71875 -32.878906 75.71875 -33.601562 C 75.71875 -37.320312 72.359375 -39.359375 68.761719 -39.359375 C 65.398438 -39.359375 61.800781 -37.558594 60.71875 -33.839844 Z M 34.320312 -56.28125 C 37.679688 -56.28125 39.839844 -53.519531 39.839844 -50.039062 C 39.839844 -49.078125 39.71875 -48.121094 39.359375 -47.160156 C 38.160156 -43.199219 34.558594 -41.761719 30.960938 -41.761719 C 28.679688 -41.761719 26.398438 -42.238281 24.71875 -43.199219 L 27.238281 -50.398438 C 28.558594 -54.121094 31.558594 -56.28125 34.320312 -56.28125 Z M 34.320312 -56.28125 "/></g></g></g><g clip-path="url(#3f3aceb1dd)"><g clip-path="url(#99caa4d66b)"><g clip-path="url(#38e5a00a18)"><path fill="#e7b9b3" d="M 20.570312 196.546875 L 28.734375 173.953125 L 44.714844 179.726562 L 36.550781 202.320312 Z M 20.570312 196.546875 " fill-opacity="1" fill-rule="nonzero"/></g></g></g><g clip-path="url(#27eabbac1d)"><g clip-path="url(#00ee2ca063)"><g clip-path="url(#34886f716a)"><path fill="#c0c0c0" d="M 28.6875 173.976562 L 44.703125 179.648438 L 41.964844 187.378906 L 25.949219 181.707031 Z M 28.6875 173.976562 " fill-opacity="1" fill-rule="nonzero"/></g></g></g><g clip-path="url(#0100e725d7)"><g clip-path="url(#e6c61d11af)"><g clip-path="url(#7f5b2116e8)"><path fill="#ffd700" d="M 260.992188 151.882812 L 274.457031 157.652344 L 268.921875 170.578125 L 255.457031 164.808594 Z M 260.992188 151.882812 " fill-opacity="1" fill-rule="nonzero"/></g></g></g><g fill="#052f5f" fill-opacity="1"><g transform="translate(65.056635, 290.902994)"><g><path d="M 65.160156 -38.160156 C 62.640625 -31.199219 57.238281 -26.878906 50.878906 -26.878906 L 50.28125 -26.878906 L 55.679688 -41.519531 C 56.878906 -44.761719 57.480469 -48 57.480469 -50.878906 C 57.480469 -62.640625 48.601562 -70.441406 38.039062 -70.441406 C 36 -70.441406 34.199219 -70.199219 32.28125 -69.601562 L 40.078125 -92.039062 C 40.558594 -93.601562 40.921875 -94.921875 40.921875 -96.238281 C 40.921875 -101.28125 36.839844 -104.160156 32.640625 -104.160156 C 28.921875 -104.160156 25.320312 -101.878906 23.640625 -96.960938 C 15 -71.761719 7.679688 -51.601562 0 -29.28125 C -1.078125 -26.28125 -1.679688 -22.800781 -1.679688 -20.039062 C -1.679688 -6.960938 9.121094 0 21.121094 0 C 29.878906 0 39.601562 -3.359375 44.761719 -12.960938 C 46.199219 -12.71875 47.761719 -12.601562 49.320312 -12.601562 C 62.039062 -12.601562 74.878906 -20.160156 79.199219 -33.839844 C 79.441406 -34.558594 79.558594 -35.160156 79.558594 -35.761719 C 79.558594 -39.71875 75.359375 -42.238281 71.398438 -42.238281 C 68.761719 -42.238281 66.121094 -41.039062 65.160156 -38.160156 Z M 29.519531 -20.640625 L 29.28125 -19.679688 C 27.839844 -15.71875 24.238281 -14.28125 21.121094 -14.28125 C 17.640625 -14.28125 15.359375 -16.199219 15.359375 -19.558594 C 15.359375 -20.640625 15.480469 -21.839844 15.960938 -23.160156 C 19.199219 -32.160156 21.839844 -39.71875 24.960938 -48.839844 C 27.359375 -53.28125 31.199219 -56.28125 34.679688 -56.28125 C 37.800781 -56.28125 39.960938 -54.238281 39.960938 -51.238281 C 39.960938 -50.398438 39.839844 -49.441406 39.480469 -48.480469 L 36.960938 -41.28125 C 36.238281 -41.519531 37.078125 -41.28125 36.238281 -41.28125 C 30.359375 -41.28125 25.679688 -36.480469 25.679688 -30.359375 C 25.679688 -26.878906 27 -23.519531 29.519531 -20.640625 Z M 29.519531 -20.640625 "/></g></g></g><g fill="#052f5f" fill-opacity="1"><g transform="translate(124.936663, 290.902994)"><g><path d="M 60.71875 -33.839844 C 55.441406 -19.921875 42.839844 -14.28125 32.640625 -14.28125 C 23.878906 -14.28125 18.359375 -18.480469 18.359375 -24 C 18.359375 -25.078125 18.480469 -26.160156 18.960938 -27.359375 L 19.921875 -29.640625 C 23.398438 -27.480469 27.71875 -26.039062 32.519531 -26.039062 C 43.441406 -26.039062 53.039062 -32.878906 56.28125 -43.679688 C 56.878906 -45.960938 57.238281 -48.238281 57.238281 -50.28125 C 57.238281 -61.679688 48.238281 -70.441406 34.679688 -70.441406 C 24 -70.441406 13.558594 -64.199219 9.359375 -52.199219 L 2.28125 -31.679688 C 1.320312 -28.800781 0.71875 -25.921875 0.71875 -23.160156 C 0.71875 -8.878906 14.160156 0 31.679688 0 C 48.359375 0 67.320312 -8.160156 75.238281 -31.078125 C 75.601562 -32.039062 75.71875 -32.878906 75.71875 -33.601562 C 75.71875 -37.320312 72.359375 -39.359375 68.761719 -39.359375 C 65.398438 -39.359375 61.800781 -37.558594 60.71875 -33.839844 Z M 34.320312 -56.28125 C 37.679688 -56.28125 39.839844 -53.519531 39.839844 -50.039062 C 39.839844 -49.078125 39.71875 -48.121094 39.359375 -47.160156 C 38.160156 -43.199219 34.558594 -41.761719 30.960938 -41.761719 C 28.679688 -41.761719 26.398438 -42.238281 24.71875 -43.199219 L 27.238281 -50.398438 C 28.558594 -54.121094 31.558594 -56.28125 34.320312 -56.28125 Z M 34.320312 -56.28125 "/></g></g></g><g fill="#052f5f" fill-opacity="1"><g transform="translate(181.816691, 290.902994)"><g><path d="M 42.839844 -33.839844 C 38.039062 -20.640625 30.480469 -14.28125 23.519531 -14.28125 C 19.199219 -14.28125 16.558594 -16.921875 16.558594 -20.160156 C 16.558594 -21 16.800781 -21.960938 17.039062 -22.800781 L 28.800781 -56.28125 L 36.601562 -56.28125 C 42.71875 -56.28125 45.960938 -60.601562 45.960938 -64.558594 C 45.960938 -67.679688 43.921875 -70.441406 39.359375 -70.441406 L 33.960938 -70.441406 L 42 -93.839844 C 42.238281 -94.679688 42.359375 -95.398438 42.359375 -96.121094 C 42.359375 -100.558594 39.238281 -104.160156 33.960938 -104.160156 C 30 -104.160156 26.640625 -101.398438 25.199219 -97.199219 L 15.601562 -70.441406 L 10.558594 -70.441406 C 4.078125 -70.441406 1.320312 -66.359375 1.320312 -62.519531 C 1.320312 -59.160156 3.359375 -56.28125 6.601562 -56.28125 L 10.558594 -56.28125 L 0.480469 -27.359375 L 0.480469 -27.480469 C -0.480469 -24.601562 -0.960938 -21.960938 -0.960938 -19.441406 C -0.960938 -7.199219 9.960938 0 22.320312 0 C 37.679688 0 50.519531 -11.398438 57.359375 -31.078125 C 57.601562 -31.921875 57.839844 -32.761719 57.839844 -33.480469 C 57.839844 -37.078125 54.359375 -39.359375 50.640625 -39.359375 C 47.640625 -39.359375 44.28125 -37.679688 42.839844 -33.839844 Z M 42.839844 -33.839844 "/></g></g></g><g fill="#052f5f" fill-opacity="1"><g transform="translate(221.056705, 290.902994)"><g><path d="M 42.839844 -33.839844 C 38.039062 -20.640625 30.480469 -14.28125 23.519531 -14.28125 C 19.199219 -14.28125 16.558594 -16.921875 16.558594 -20.160156 C 16.558594 -21 16.800781 -21.960938 17.039062 -22.800781 L 28.800781 -56.28125 L 36.601562 -56.28125 C 42.71875 -56.28125 45.960938 -60.601562 45.960938 -64.558594 C 45.960938 -67.679688 43.921875 -70.441406 39.359375 -70.441406 L 33.960938 -70.441406 L 42 -93.839844 C 42.238281 -94.679688 42.359375 -95.398438 42.359375 -96.121094 C 42.359375 -100.558594 39.238281 -104.160156 33.960938 -104.160156 C 30 -104.160156 26.640625 -101.398438 25.199219 -97.199219 L 15.601562 -70.441406 L 10.558594 -70.441406 C 4.078125 -70.441406 1.320312 -66.359375 1.320312 -62.519531 C 1.320312 -59.160156 3.359375 -56.28125 6.601562 -56.28125 L 10.558594 -56.28125 L 0.480469 -27.359375 L 0.480469 -27.480469 C -0.480469 -24.601562 -0.960938 -21.960938 -0.960938 -19.441406 C -0.960938 -7.199219 9.960938 0 22.320312 0 C 37.679688 0 50.519531 -11.398438 57.359375 -31.078125 C 57.601562 -31.921875 57.839844 -32.761719 57.839844 -33.480469 C 57.839844 -37.078125 54.359375 -39.359375 50.640625 -39.359375 C 47.640625 -39.359375 44.28125 -37.679688 42.839844 -33.839844 Z M 42.839844 -33.839844 "/></g></g></g><g fill="#052f5f" fill-opacity="1"><g transform="translate(260.29672, 290.902994)"><g><path d="M 60.839844 -34.800781 C 56.28125 -23.039062 50.160156 -14.28125 45.121094 -14.28125 C 43.441406 -14.28125 42.601562 -15.839844 42.601562 -17.519531 C 42.601562 -18.238281 42.71875 -19.199219 43.078125 -20.160156 L 50.160156 -39.839844 C 50.878906 -42.238281 51.359375 -44.398438 51.359375 -46.441406 C 51.359375 -57.839844 36.960938 -62.640625 30.238281 -64.679688 C 30.601562 -65.640625 30.71875 -66.71875 30.71875 -67.679688 C 30.71875 -73.199219 25.800781 -77.878906 20.398438 -77.878906 C 13.320312 -77.878906 9.121094 -71.640625 9.121094 -64.800781 C 9.121094 -61.800781 10.199219 -58.679688 12.121094 -56.28125 L 3.359375 -32.640625 C 3.121094 -31.679688 3 -30.71875 3 -30 C 3 -26.039062 6.121094 -24 9.480469 -24 C 12.839844 -24 16.320312 -25.921875 17.761719 -29.761719 L 24.480469 -47.761719 C 27.839844 -46.679688 32.28125 -45.839844 32.28125 -41.761719 C 32.28125 -41.160156 32.160156 -40.441406 31.921875 -39.601562 L 26.640625 -24.960938 C 25.679688 -22.199219 25.199219 -19.679688 25.199219 -17.28125 C 25.199219 -6.839844 33.480469 0 43.441406 0 C 56.519531 0 68.398438 -11.640625 75.480469 -31.921875 C 75.71875 -32.640625 75.839844 -33.238281 75.839844 -33.839844 C 75.839844 -37.441406 71.878906 -39.839844 68.039062 -39.839844 C 64.921875 -39.839844 61.921875 -38.398438 60.839844 -34.800781 Z M 60.839844 -34.800781 "/></g></g></g><g clip-path="url(#8b3434136b)"><g clip-path="url(#d7942286a3)"><g clip-path="url(#5e1ec8c96c)"><path fill="#c4a484" d="M 267.691406 136.449219 L 281.0625 142.179688 L 274.375 157.777344 L 261.007812 152.046875 Z M 267.691406 136.449219 " fill-opacity="1" fill-rule="nonzero"/></g></g></g><g clip-path="url(#616d0fd29f)"><g clip-path="url(#1129dbc624)"><g clip-path="url(#9ab47f19d6)"><path fill="#000000" d="M 272.023438 136.347656 L 278.054688 138.933594 L 275.558594 144.757812 L 269.527344 142.171875 Z M 272.023438 136.347656 " fill-opacity="1" fill-rule="nonzero"/></g></g></g></svg>